<svg xmlns="http://www.w3.org/2000/svg" viewBox="0 0 1600 700">
  <defs>
    <linearGradient id="bg" x1="0%" y1="0%" x2="100%" y2="100%">
      <stop offset="0%" stop-color="#0B1220"/>
      <stop offset="45%" stop-color="#102A5C"/>
      <stop offset="100%" stop-color="#1E3A8A"/>
    </linearGradient>
    <radialGradient id="glow1" cx="15%" cy="25%" r="55%">
      <stop offset="0%" stop-color="#60A5FA" stop-opacity="0.28"/>
      <stop offset="100%" stop-color="#60A5FA" stop-opacity="0"/>
    </radialGradient>
    <radialGradient id="glow2" cx="88%" cy="70%" r="60%">
      <stop offset="0%" stop-color="#2563EB" stop-opacity="0.35"/>
      <stop offset="100%" stop-color="#2563EB" stop-opacity="0"/>
    </radialGradient>
    <pattern id="grid" width="70" height="70" patternUnits="userSpaceOnUse">
      <path d="M 70 0 L 0 0 0 70" fill="none" stroke="#ffffff" stroke-opacity="0.05" stroke-width="1"/>
    </pattern>
  </defs>
  <rect width="1600" height="700" fill="url(#bg)"/>
  <rect width="1600" height="700" fill="url(#grid)"/>
  <rect width="1600" height="700" fill="url(#glow1)"/>
  <rect width="1600" height="700" fill="url(#glow2)"/>
  <text x="220" y="480" font-size="420" font-family="'Noto Serif JP', serif" fill="#60A5FA" fill-opacity="0.06" text-anchor="middle">電</text>

  <circle cx="130" cy="130" r="50" fill="#0B1220" fill-opacity="0.3"/>
  <text x="130" y="150" font-size="50" text-anchor="middle">💬</text>

  <g transform="translate(1150,360)">
    <path d="M -230,-90 Q -230,-140 -180,-140 L 190,-140 Q 240,-140 240,-90 L 240,30 Q 240,80 190,80 L -70,80 L -140,150 L -125,80 L -180,80 Q -230,80 -230,30 Z"
          fill="#93C5FD" fill-opacity="0.85"/>
    <line x1="-160" y1="-70" x2="140" y2="-70" stroke="#0B1220" stroke-opacity="0.28" stroke-width="10" stroke-linecap="round"/>
    <line x1="-160" y1="-25" x2="180" y2="-25" stroke="#0B1220" stroke-opacity="0.28" stroke-width="10" stroke-linecap="round"/>
    <line x1="-160" y1="20" x2="90" y2="20" stroke="#0B1220" stroke-opacity="0.28" stroke-width="10" stroke-linecap="round"/>
  </g>
</svg>
