<svg xmlns="http://www.w3.org/2000/svg" viewBox="0 0 1600 700">
  <defs>
    <linearGradient id="bg" x1="0%" y1="0%" x2="100%" y2="100%">
      <stop offset="0%" stop-color="#0B1220"/>
      <stop offset="45%" stop-color="#102A5C"/>
      <stop offset="100%" stop-color="#1E3A8A"/>
    </linearGradient>
    <radialGradient id="glow1" cx="15%" cy="25%" r="55%">
      <stop offset="0%" stop-color="#60A5FA" stop-opacity="0.28"/>
      <stop offset="100%" stop-color="#60A5FA" stop-opacity="0"/>
    </radialGradient>
    <radialGradient id="glow2" cx="88%" cy="70%" r="60%">
      <stop offset="0%" stop-color="#2563EB" stop-opacity="0.35"/>
      <stop offset="100%" stop-color="#2563EB" stop-opacity="0"/>
    </radialGradient>
    <pattern id="grid" width="70" height="70" patternUnits="userSpaceOnUse">
      <path d="M 70 0 L 0 0 0 70" fill="none" stroke="#ffffff" stroke-opacity="0.05" stroke-width="1"/>
    </pattern>
  </defs>
  <rect width="1600" height="700" fill="url(#bg)"/>
  <rect width="1600" height="700" fill="url(#grid)"/>
  <rect width="1600" height="700" fill="url(#glow1)"/>
  <rect width="1600" height="700" fill="url(#glow2)"/>
  <text x="220" y="480" font-size="420" font-family="'Noto Serif JP', serif" fill="#60A5FA" fill-opacity="0.06" text-anchor="middle">電</text>

  <circle cx="130" cy="130" r="50" fill="#0B1220" fill-opacity="0.3"/>
  <text x="130" y="150" font-size="50" text-anchor="middle">🌱</text>

  <g transform="translate(1150,370)">
    <!-- factory -->
    <rect x="-230" y="-30" width="120" height="150" fill="#60A5FA" fill-opacity="0.6"/>
    <rect x="-100" y="-100" width="140" height="220" fill="#93C5FD" fill-opacity="0.8"/>
    <polygon points="-30,-100 -30,-160 10,-130 10,-100" fill="#93C5FD" fill-opacity="0.8"/>
    <rect x="60" y="-60" width="90" height="180" fill="#DBEAFE"/>
    <!-- leaf badge -->
    <g transform="translate(150,-160)">
      <circle r="55" fill="#22C55E" fill-opacity="0.25"/>
      <path d="M -25,20 Q -25,-25 25,-25 Q 25,20 -25,20 Z" fill="#4ADE80"/>
      <line x1="-20" y1="15" x2="15" y2="-15" stroke="#166534" stroke-width="4"/>
    </g>
  </g>
</svg>
