<svg xmlns="http://www.w3.org/2000/svg" viewBox="0 0 1600 700">
  <defs>
    <linearGradient id="bg" x1="0%" y1="0%" x2="100%" y2="100%">
      <stop offset="0%" stop-color="#0B1220"/>
      <stop offset="45%" stop-color="#102A5C"/>
      <stop offset="100%" stop-color="#1E3A8A"/>
    </linearGradient>
    <radialGradient id="glow1" cx="15%" cy="25%" r="55%">
      <stop offset="0%" stop-color="#60A5FA" stop-opacity="0.28"/>
      <stop offset="100%" stop-color="#60A5FA" stop-opacity="0"/>
    </radialGradient>
    <radialGradient id="glow2" cx="88%" cy="70%" r="60%">
      <stop offset="0%" stop-color="#2563EB" stop-opacity="0.35"/>
      <stop offset="100%" stop-color="#2563EB" stop-opacity="0"/>
    </radialGradient>
    <pattern id="grid" width="70" height="70" patternUnits="userSpaceOnUse">
      <path d="M 70 0 L 0 0 0 70" fill="none" stroke="#ffffff" stroke-opacity="0.05" stroke-width="1"/>
    </pattern>
  </defs>
  <rect width="1600" height="700" fill="url(#bg)"/>
  <rect width="1600" height="700" fill="url(#grid)"/>
  <rect width="1600" height="700" fill="url(#glow1)"/>
  <rect width="1600" height="700" fill="url(#glow2)"/>
  <text x="220" y="480" font-size="420" font-family="'Noto Serif JP', serif" fill="#60A5FA" fill-opacity="0.06" text-anchor="middle">電</text>

  <circle cx="130" cy="130" r="50" fill="#0B1220" fill-opacity="0.3"/>
  <text x="130" y="150" font-size="50" text-anchor="middle">✍️</text>

  <g transform="translate(1160,370)">
    <!-- notebook -->
    <rect x="-220" y="-160" width="300" height="320" rx="14" fill="#93C5FD" fill-opacity="0.85"/>
    <rect x="-220" y="-160" width="26" height="320" rx="10" fill="#60A5FA"/>
    <line x1="-150" y1="-90" x2="30" y2="-90" stroke="#0B1220" stroke-opacity="0.25" stroke-width="9" stroke-linecap="round"/>
    <line x1="-150" y1="-45" x2="55" y2="-45" stroke="#0B1220" stroke-opacity="0.25" stroke-width="9" stroke-linecap="round"/>
    <line x1="-150" y1="0" x2="10" y2="0" stroke="#0B1220" stroke-opacity="0.25" stroke-width="9" stroke-linecap="round"/>
    <line x1="-150" y1="45" x2="55" y2="45" stroke="#0B1220" stroke-opacity="0.25" stroke-width="9" stroke-linecap="round"/>
    <!-- pencil -->
    <g transform="translate(120,-40) rotate(45)">
      <rect x="-18" y="-140" width="36" height="220" rx="8" fill="#DBEAFE"/>
      <polygon points="-18,-140 18,-140 0,-190" fill="#F5B942"/>
      <rect x="-18" y="80" width="36" height="30" fill="#60A5FA"/>
    </g>
    <!-- badge number -->
    <circle cx="130" cy="130" r="34" fill="#DBEAFE"/>
    <text x="130" y="142" font-size="34" font-weight="900" fill="#0B1220" text-anchor="middle">1</text>
  </g>
</svg>
