<svg xmlns="http://www.w3.org/2000/svg" viewBox="0 0 1600 700">
  <defs>
    <linearGradient id="bg" x1="0%" y1="0%" x2="100%" y2="100%">
      <stop offset="0%" stop-color="#0B1220"/>
      <stop offset="45%" stop-color="#102A5C"/>
      <stop offset="100%" stop-color="#1E3A8A"/>
    </linearGradient>
    <radialGradient id="glow1" cx="15%" cy="25%" r="55%">
      <stop offset="0%" stop-color="#60A5FA" stop-opacity="0.28"/>
      <stop offset="100%" stop-color="#60A5FA" stop-opacity="0"/>
    </radialGradient>
    <radialGradient id="glow2" cx="88%" cy="70%" r="60%">
      <stop offset="0%" stop-color="#2563EB" stop-opacity="0.35"/>
      <stop offset="100%" stop-color="#2563EB" stop-opacity="0"/>
    </radialGradient>
    <pattern id="grid" width="70" height="70" patternUnits="userSpaceOnUse">
      <path d="M 70 0 L 0 0 0 70" fill="none" stroke="#ffffff" stroke-opacity="0.05" stroke-width="1"/>
    </pattern>
  </defs>
  <rect width="1600" height="700" fill="url(#bg)"/>
  <rect width="1600" height="700" fill="url(#grid)"/>
  <rect width="1600" height="700" fill="url(#glow1)"/>
  <rect width="1600" height="700" fill="url(#glow2)"/>
  <text x="220" y="480" font-size="420" font-family="'Noto Serif JP', serif" fill="#60A5FA" fill-opacity="0.06" text-anchor="middle">電</text>

  <circle cx="130" cy="130" r="50" fill="#0B1220" fill-opacity="0.3"/>
  <text x="130" y="150" font-size="50" text-anchor="middle">🏭</text>

  <g transform="translate(1150,420)">
    <rect x="-260" y="-40" width="110" height="140" fill="#60A5FA" fill-opacity="0.6"/>
    <rect x="-140" y="-110" width="130" height="210" fill="#93C5FD" fill-opacity="0.8"/>
    <rect x="10" y="-65" width="100" height="165" fill="#DBEAFE"/>
    <g fill="#0B1220" fill-opacity="0.35">
      <rect x="-115" y="-80" width="20" height="20"/>
      <rect x="-115" y="-40" width="20" height="20"/>
      <rect x="-78" y="-80" width="20" height="20"/>
      <rect x="-78" y="-40" width="20" height="20"/>
      <rect x="35" y="-40" width="18" height="18"/>
      <rect x="67" y="-40" width="18" height="18"/>
    </g>
    <g transform="translate(190,-150)">
      <circle r="50" fill="none" stroke="#DBEAFE" stroke-width="13"/>
      <circle r="15" fill="#DBEAFE"/>
    </g>
  </g>
</svg>
