<svg xmlns="http://www.w3.org/2000/svg" viewBox="0 0 1600 700">
  <defs>
    <linearGradient id="bg" x1="0%" y1="0%" x2="100%" y2="100%">
      <stop offset="0%" stop-color="#0B1220"/>
      <stop offset="45%" stop-color="#102A5C"/>
      <stop offset="100%" stop-color="#1E3A8A"/>
    </linearGradient>
    <radialGradient id="glow1" cx="15%" cy="25%" r="55%">
      <stop offset="0%" stop-color="#60A5FA" stop-opacity="0.28"/>
      <stop offset="100%" stop-color="#60A5FA" stop-opacity="0"/>
    </radialGradient>
    <radialGradient id="glow2" cx="88%" cy="70%" r="60%">
      <stop offset="0%" stop-color="#2563EB" stop-opacity="0.35"/>
      <stop offset="100%" stop-color="#2563EB" stop-opacity="0"/>
    </radialGradient>
    <pattern id="grid" width="70" height="70" patternUnits="userSpaceOnUse">
      <path d="M 70 0 L 0 0 0 70" fill="none" stroke="#ffffff" stroke-opacity="0.05" stroke-width="1"/>
    </pattern>
  </defs>
  <rect width="1600" height="700" fill="url(#bg)"/>
  <rect width="1600" height="700" fill="url(#grid)"/>
  <rect width="1600" height="700" fill="url(#glow1)"/>
  <rect width="1600" height="700" fill="url(#glow2)"/>
  <text x="220" y="480" font-size="420" font-family="'Noto Serif JP', serif" fill="#60A5FA" fill-opacity="0.06" text-anchor="middle">電</text>

  <circle cx="130" cy="130" r="50" fill="#0B1220" fill-opacity="0.3"/>
  <text x="130" y="150" font-size="50" text-anchor="middle">📝</text>

  <g transform="translate(1180,380)">
    <circle r="220" fill="#60A5FA" fill-opacity="0.08"/>
    <rect x="-160" y="10" width="55" height="90" rx="8" fill="#60A5FA" fill-opacity="0.55"/>
    <rect x="-85" y="-40" width="55" height="140" rx="8" fill="#60A5FA" fill-opacity="0.7"/>
    <rect x="-10" y="-100" width="55" height="200" rx="8" fill="#93C5FD" fill-opacity="0.85"/>
    <rect x="65" y="-150" width="55" height="250" rx="8" fill="#DBEAFE"/>
    <line x1="-190" y1="100" x2="150" y2="100" stroke="#DBEAFE" stroke-opacity="0.4" stroke-width="4"/>
  </g>
</svg>
