<svg xmlns="http://www.w3.org/2000/svg" viewBox="0 0 1600 700">
  <defs>
    <linearGradient id="bg" x1="0%" y1="0%" x2="100%" y2="100%">
      <stop offset="0%" stop-color="#0B1220"/>
      <stop offset="45%" stop-color="#102A5C"/>
      <stop offset="100%" stop-color="#1E3A8A"/>
    </linearGradient>
    <radialGradient id="glow1" cx="15%" cy="25%" r="55%">
      <stop offset="0%" stop-color="#60A5FA" stop-opacity="0.28"/>
      <stop offset="100%" stop-color="#60A5FA" stop-opacity="0"/>
    </radialGradient>
    <radialGradient id="glow2" cx="88%" cy="70%" r="60%">
      <stop offset="0%" stop-color="#2563EB" stop-opacity="0.35"/>
      <stop offset="100%" stop-color="#2563EB" stop-opacity="0"/>
    </radialGradient>
    <pattern id="grid" width="70" height="70" patternUnits="userSpaceOnUse">
      <path d="M 70 0 L 0 0 0 70" fill="none" stroke="#ffffff" stroke-opacity="0.05" stroke-width="1"/>
    </pattern>
  </defs>
  <rect width="1600" height="700" fill="url(#bg)"/>
  <rect width="1600" height="700" fill="url(#grid)"/>
  <rect width="1600" height="700" fill="url(#glow1)"/>
  <rect width="1600" height="700" fill="url(#glow2)"/>
  <text x="220" y="480" font-size="420" font-family="'Noto Serif JP', serif" fill="#60A5FA" fill-opacity="0.06" text-anchor="middle">電</text>

  <circle cx="130" cy="130" r="50" fill="#0B1220" fill-opacity="0.3"/>
  <text x="130" y="150" font-size="50" text-anchor="middle">📚</text>

  <g transform="translate(1180,380)">
    <g transform="translate(-190,0)">
      <rect x="-75" y="-95" width="150" height="190" rx="10" fill="#60A5FA" fill-opacity="0.75"/>
      <line x1="0" y1="-95" x2="0" y2="95" stroke="#0B1220" stroke-opacity="0.25" stroke-width="5"/>
      <line x1="-45" y1="-50" x2="-15" y2="-50" stroke="#0B1220" stroke-opacity="0.2" stroke-width="5"/>
      <line x1="-45" y1="-20" x2="-15" y2="-20" stroke="#0B1220" stroke-opacity="0.2" stroke-width="5"/>
    </g>
    <text x="0" y="20" font-size="52" font-weight="900" fill="#DBEAFE" text-anchor="middle" font-family="Georgia, serif">VS</text>
    <g transform="translate(190,15)">
      <rect x="-90" y="-58" width="180" height="106" rx="10" fill="#93C5FD" fill-opacity="0.85"/>
      <rect x="-70" y="-40" width="140" height="70" rx="4" fill="#0B1220" fill-opacity="0.3"/>
      <rect x="-108" y="48" width="216" height="18" rx="7" fill="#DBEAFE"/>
    </g>
  </g>
</svg>
