<svg xmlns="http://www.w3.org/2000/svg" viewBox="0 0 1600 700">
  <defs>
    <linearGradient id="bg" x1="0%" y1="0%" x2="100%" y2="100%">
      <stop offset="0%" stop-color="#0B1220"/>
      <stop offset="45%" stop-color="#102A5C"/>
      <stop offset="100%" stop-color="#1E3A8A"/>
    </linearGradient>
    <radialGradient id="glow1" cx="15%" cy="25%" r="55%">
      <stop offset="0%" stop-color="#60A5FA" stop-opacity="0.28"/>
      <stop offset="100%" stop-color="#60A5FA" stop-opacity="0"/>
    </radialGradient>
    <radialGradient id="glow2" cx="88%" cy="70%" r="60%">
      <stop offset="0%" stop-color="#2563EB" stop-opacity="0.35"/>
      <stop offset="100%" stop-color="#2563EB" stop-opacity="0"/>
    </radialGradient>
    <pattern id="grid" width="70" height="70" patternUnits="userSpaceOnUse">
      <path d="M 70 0 L 0 0 0 70" fill="none" stroke="#ffffff" stroke-opacity="0.05" stroke-width="1"/>
    </pattern>
  </defs>
  <rect width="1600" height="700" fill="url(#bg)"/>
  <rect width="1600" height="700" fill="url(#grid)"/>
  <rect width="1600" height="700" fill="url(#glow1)"/>
  <rect width="1600" height="700" fill="url(#glow2)"/>
  <text x="220" y="480" font-size="420" font-family="'Noto Serif JP', serif" fill="#60A5FA" fill-opacity="0.06" text-anchor="middle">電</text>

  <circle cx="130" cy="130" r="50" fill="#0B1220" fill-opacity="0.3"/>
  <text x="130" y="150" font-size="50" text-anchor="middle">🧲</text>

  <g transform="translate(1150,370)">
    <!-- horseshoe magnet -->
    <path d="M -150,-150 A 150 150 0 0 1 150,-150 L 150,50 L 80,50 L 80,-120 A 80 80 0 0 0 -80,-120 L -80,50 L -150,50 Z"
          fill="#93C5FD" fill-opacity="0.85"/>
    <rect x="-150" y="50" width="70" height="55" rx="6" fill="#EF4444"/>
    <rect x="80" y="50" width="70" height="55" rx="6" fill="#2563EB"/>
    <text x="-115" y="88" font-size="30" font-weight="900" fill="#fff" text-anchor="middle">N</text>
    <text x="115" y="88" font-size="30" font-weight="900" fill="#fff" text-anchor="middle">S</text>
    <!-- field lines between poles -->
    <g stroke="#DBEAFE" stroke-width="6" stroke-linecap="round">
      <line x1="-95" y1="-40" x2="65" y2="-40"/>
      <line x1="-95" y1="-90" x2="65" y2="-90"/>
    </g>
    <g fill="#DBEAFE">
      <polygon points="60,-48 82,-40 60,-32"/>
      <polygon points="60,-98 82,-90 60,-82"/>
    </g>
  </g>
</svg>
