<svg xmlns="http://www.w3.org/2000/svg" viewBox="0 0 1600 700">
  <defs>
    <linearGradient id="bg" x1="0%" y1="0%" x2="100%" y2="100%">
      <stop offset="0%" stop-color="#0B1220"/>
      <stop offset="45%" stop-color="#102A5C"/>
      <stop offset="100%" stop-color="#1E3A8A"/>
    </linearGradient>
    <radialGradient id="glow1" cx="15%" cy="25%" r="55%">
      <stop offset="0%" stop-color="#60A5FA" stop-opacity="0.28"/>
      <stop offset="100%" stop-color="#60A5FA" stop-opacity="0"/>
    </radialGradient>
    <radialGradient id="glow2" cx="88%" cy="70%" r="60%">
      <stop offset="0%" stop-color="#2563EB" stop-opacity="0.35"/>
      <stop offset="100%" stop-color="#2563EB" stop-opacity="0"/>
    </radialGradient>
    <pattern id="grid" width="70" height="70" patternUnits="userSpaceOnUse">
      <path d="M 70 0 L 0 0 0 70" fill="none" stroke="#ffffff" stroke-opacity="0.05" stroke-width="1"/>
    </pattern>
  </defs>
  <rect width="1600" height="700" fill="url(#bg)"/>
  <rect width="1600" height="700" fill="url(#grid)"/>
  <rect width="1600" height="700" fill="url(#glow1)"/>
  <rect width="1600" height="700" fill="url(#glow2)"/>
  <text x="220" y="480" font-size="420" font-family="'Noto Serif JP', serif" fill="#60A5FA" fill-opacity="0.06" text-anchor="middle">電</text>

  <circle cx="130" cy="130" r="50" fill="#0B1220" fill-opacity="0.3"/>
  <text x="130" y="150" font-size="50" text-anchor="middle">🧭</text>

  <g transform="translate(1150,370)">
    <circle r="130" fill="none" stroke="#93C5FD" stroke-width="11"/>
    <circle r="130" fill="#60A5FA" fill-opacity="0.06"/>
    <polygon points="0,-82 24,12 0,82 -24,12" fill="#DBEAFE"/>
    <circle r="12" fill="#0B1220"/>
    <g transform="translate(175,150)">
      <rect x="-58" y="-35" width="116" height="80" rx="12" fill="#60A5FA" fill-opacity="0.85"/>
      <rect x="-24" y="-58" width="48" height="24" rx="6" fill="none" stroke="#60A5FA" stroke-opacity="0.85" stroke-width="9"/>
      <line x1="-58" y1="5" x2="58" y2="5" stroke="#0B1220" stroke-opacity="0.25" stroke-width="5"/>
    </g>
  </g>
</svg>
